<?xml version="1.0" encoding="UTF-8"?>
<!-- Generator: Adobe Illustrator 22.0.1, SVG Export Plug-In . SVG Version: 6.00 Build 0)  -->
<svg version="1.1" id="Layer_1" xmlns="http://www.w3.org/2000/svg" xmlns:xlink="http://www.w3.org/1999/xlink" x="0px" y="0px" viewBox="0 0 1008.5 147" style="enable-background:new 0 0 1008.5 147;" xml:space="preserve">
<style type="text/css">
	.st0{fill:#5E4B63;}
	.st1{fill:#F15C5E;}
</style>
<g>
	<g>
		<path class="st0" d="M41.2,122.4c0,9.4-4.8,13-13.9,13H1v-18.3h20V12h20.3L41.2,122.4L41.2,122.4z"/>
		<path class="st0" d="M127.4,122.4c0,9.4-4.8,13-13.9,13H87.2c-9.1,0-13.9-3.6-13.9-13V12h20.3v105.1h13.6V12h20.3v110.4H127.4z"/>
		<path class="st0" d="M213.7,135.4h-20.3V89.9h-13.6v45.5h-20.3V12h40.3c9.1,0,13.9,3.7,13.9,13.1v45.5c0,6-2.8,8.8-7.4,10.2v0.5    c4.5,0.5,7.4,3.2,7.4,9.3V135.4z M193.4,71.9V30.3h-13.6v41.6H193.4z"/>
		<path class="st0" d="M266.1,135.4h-20.3V12h20.3V135.4z"/>
		<path class="st0" d="M349.1,122.7c0,9.3-4.8,12.7-13.8,12.7h-37.1v-18.2h30.6V83.5h-17.6c-9.4,0-13-4.8-13-13.9V25.2    c0-9.4,4.8-13.1,13.9-13.1h34v18.2h-27.7v35.2H336c9.4,0,13,4.9,13,14.1v43.1H349.1z"/>
	</g>
</g>
<g>
	<g>
		<path class="st0" d="M580,83.4h-23.5v51.9h-20.3V12H580v18.2h-23.5v35.2H580V83.4z"/>
		<path class="st0" d="M664.4,122.4c0,9.4-4.8,13-13.9,13h-26.3c-9.1,0-13.9-3.6-13.9-13V12h20.3v105.1h13.6V12h20.3L664.4,122.4    L664.4,122.4z"/>
		<path class="st0" d="M750.4,30.3h-17.8v105.1h-20.3V30.3h-17.6V12h55.7L750.4,30.3L750.4,30.3z"/>
		<path class="st0" d="M834.8,122.4c0,9.4-4.8,13-13.9,13h-26.3c-9.1,0-13.9-3.6-13.9-13V12H801v105.1h13.6V12h20.2V122.4z"/>
		<path class="st0" d="M921.1,135.4h-20.3V89.9h-13.6v45.5h-20.3V12h40.2c9.1,0,13.9,3.7,13.9,13.1v45.5c0,6-2.8,8.8-7.4,10.2v0.5    c4.5,0.5,7.4,3.2,7.4,9.3L921.1,135.4L921.1,135.4z M900.8,71.9V30.3h-13.6v41.6H900.8z"/>
		<path class="st0" d="M1007.5,135.4h-20.3V89.9h-13.8v45.5h-20.3V25.2c0-9.4,4.9-13.1,14.1-13.1h26.3c9.1,0,13.9,3.7,13.9,13.1    L1007.5,135.4L1007.5,135.4z M987.2,71.9V30.3h-13.8v41.6H987.2z"/>
	</g>
</g>
<g>
	<rect x="449.2" y="44.1" class="st1" width="43.8" height="22.1"/>
	<polygon class="st1" points="435.6,102.4 435.6,30.5 493,30.5 493,-0.1 392,-0.1 392,102.4  "/>
	<polygon class="st1" points="449.2,79.8 449.2,116 392,116 392,146.6 493,146.6 493,79.8  "/>
</g>
</svg>