<?xml version="1.0" encoding="UTF-8"?>
<svg width="752pt" height="752pt" version="1.1" viewBox="0 0 752 752" xmlns="http://www.w3.org/2000/svg">
 <path d="m569.68 210.84c-1.3125-2.2695-3.4805-3.9219-6.0195-4.5859-2.5352-0.66797-5.2344-0.29688-7.4961 1.0352l-8.582 4.9336c-3.7734 2.293-5.5703 6.8125-4.4023 11.07 1.168 4.2578 5.0156 7.2305 9.4336 7.2812 3.5508 0.49219 10.359-4.7344 13.418-6.2148v-0.003906c4.707-2.7461 6.3359-8.7695 3.6484-13.516zm-3.6523 70.641-8.582-4.9336v0.003906c-4.7227-2.5703-10.633-0.89844-13.312 3.7656-2.6797 4.6602-1.1484 10.609 3.4492 13.398 3.1562 1.4805 9.8672 6.6094 13.516 6.2148v0.003906c4.4219-0.09375 8.25-3.1016 9.3945-7.375 1.1445-4.2734-0.67578-8.7891-4.4609-11.074zm-79.129 35.816v9.8672h0.003907c0.097656 5.3789 4.4844 9.6914 9.8672 9.6914s9.7695-4.3125 9.8672-9.6914v-9.8672c-0.11328-5.3672-4.5-9.6602-9.8672-9.6602s-9.7539 4.293-9.8672 9.6602zm-37.293-37.098h0.003907c-2.75-4.707-8.7734-6.3359-13.52-3.6484l-8.582 4.9336c-3.7734 2.3125-5.5664 6.8398-4.4023 11.109 1.1641 4.2695 5.0078 7.2617 9.4336 7.3398 3.5508 0.39453 10.359-4.7344 13.418-6.2148v-0.003906c4.7109-2.7461 6.3359-8.7695 3.6523-13.516zm-3.6523-67.98-8.582-4.9336 0.003906 0.003906c-4.7031-2.5977-10.617-0.95312-13.305 3.6953s-1.1602 10.594 3.4375 13.371c3.1562 1.4805 9.8672 6.6094 13.516 6.2148v0.003907c4.4141-0.066407 8.2461-3.0547 9.3945-7.3164 1.1445-4.2617-0.67578-8.7656-4.4609-11.035zm50.812-43.41h0.003906c-5.4414 0.015625-9.8516 4.4258-9.8672 9.8672v9.8672c0 5.4492 4.418 9.8672 9.8672 9.8672s9.8672-4.418 9.8672-9.8672v-9.8672c0.007813-2.6211-1.0273-5.1328-2.8828-6.9883-1.8516-1.8516-4.3633-2.8867-6.9844-2.8789zm0 44.199 0.003906 0.003907c-14.176 0.12109-27.223 7.7539-34.277 20.051-7.0547 12.301-7.0547 27.414 0 39.715 7.0547 12.297 20.102 19.93 34.277 20.051 14.176-0.12109 27.223-7.7539 34.277-20.051 7.0508-12.301 7.0508-27.414 0-39.715-7.0547-12.297-20.102-19.93-34.277-20.051zm0 60.086 0.003906 0.003906c-7.1406-0.10156-13.699-3.9688-17.238-10.172-3.543-6.1992-3.543-13.812 0-20.016 3.5391-6.1992 10.098-10.066 17.238-10.168 7.1406 0.10156 13.699 3.9688 17.238 10.168 3.543 6.2031 3.543 13.816 0 20.016-3.5391 6.2031-10.098 10.07-17.238 10.172zm-237.18 226.23-38.973-38.973 0.003906-21.309 19.238 19.238c3.8594 3.7383 10.004 3.6875 13.801-0.10938 3.7969-3.8008 3.8477-9.9414 0.10937-13.801l-33.152-33.152 0.003906-21.41 14.996 14.996v0.003906c3.8906 3.6992 10.027 3.6094 13.809-0.19922 3.7852-3.8125 3.8281-9.9453 0.10156-13.812l-31.77-31.77c-3.9727-3.6016-10.031-3.6016-14.008 0l-31.77 31.77c-3.7227 3.8945-3.6523 10.047 0.15625 13.852 3.8086 3.8086 9.9609 3.8789 13.852 0.16016l14.898-14.996v21.41l-33.152 33.152 0.003906-0.003906c-3.7188 3.8633-3.6602 9.9883 0.12891 13.781 3.793 3.7891 9.918 3.8477 13.781 0.12891l19.238-19.238v21.312l-38.973 38.973v-0.003906c-3.7188 3.8945-3.6484 10.047 0.16016 13.855s9.957 3.875 13.852 0.15625l24.961-25.059v85.047c0 5.4492 4.418 9.8633 9.8672 9.8633 5.4492 0 9.8672-4.4141 9.8672-9.8633v-85.047l25.059 25.059c3.875 3.8164 10.102 3.7812 13.934-0.078125 3.832-3.8555 3.8203-10.086-0.019531-13.934zm332.49 69.953-86.328-193.18c-1.5625-3.5586-5.0898-5.8477-8.9766-5.8242-3.8789 0.003906-7.3945 2.2852-8.9766 5.8242l-33.941 75.773-66.5-148.88c-1.6406-3.5-5.1602-5.7344-9.0273-5.7344-3.8672 0-7.3828 2.2344-9.0273 5.7344l-63.848 142.98c-1.3633 3.0508-1.0898 6.5859 0.73047 9.3906 1.8203 2.8047 4.9336 4.4961 8.2773 4.4961 3.8906 0 7.418-2.2852 9.0078-5.8359l21.66-48.426h66.5l70.543 157.86h-207.59l31.281-69.969c1.3633-3.0547 1.0898-6.5898-0.73047-9.3945-1.8203-2.8086-4.9336-4.5-8.2773-4.5h-0.089843c-3.8906 0-7.4219 2.2891-9.0078 5.8438l-37.449 83.84c-1.3125 3.0508-1.0195 6.5586 0.78125 9.3477 1.8047 2.793 4.875 4.5039 8.1992 4.5625h323.81-0.003906c3.3359-0.027344 6.4336-1.7305 8.2422-4.5352 1.8086-2.8008 2.0859-6.3242 0.73828-9.375zm-238.17-183.41 24.469-54.66 24.371 54.66zm142.86 18.449 13.812 30.883h-27.625zm7.0039 159.14-39.07-87.414 9.4727-21.113h45.188l48.543 108.53z"/>
</svg>
